<svg id="visual" viewBox="0 0 900 600" width="900" height="600" xmlns="http://www.w3.org/2000/svg" xmlns:xlink="http://www.w3.org/1999/xlink" version="1.1"><rect x="0" y="0" width="900" height="600" fill="#FCAF3C"></rect><defs><linearGradient id="grad1_0" x1="33.3%" y1="100%" x2="100%" y2="0%"><stop offset="20%" stop-color="#6600ff" stop-opacity="1"></stop><stop offset="80%" stop-color="#6600ff" stop-opacity="1"></stop></linearGradient></defs><defs><linearGradient id="grad1_1" x1="33.3%" y1="100%" x2="100%" y2="0%"><stop offset="20%" stop-color="#6600ff" stop-opacity="1"></stop><stop offset="80%" stop-color="#e300c2" stop-opacity="1"></stop></linearGradient></defs><defs><linearGradient id="grad1_2" x1="33.3%" y1="100%" x2="100%" y2="0%"><stop offset="20%" stop-color="#ff0086" stop-opacity="1"></stop><stop offset="80%" stop-color="#e300c2" stop-opacity="1"></stop></linearGradient></defs><defs><linearGradient id="grad1_3" x1="33.3%" y1="100%" x2="100%" y2="0%"><stop offset="20%" stop-color="#ff0086" stop-opacity="1"></stop><stop offset="80%" stop-color="#ff2b56" stop-opacity="1"></stop></linearGradient></defs><defs><linearGradient id="grad1_4" x1="33.3%" y1="100%" x2="100%" y2="0%"><stop offset="20%" stop-color="#ff7c39" stop-opacity="1"></stop><stop offset="80%" stop-color="#ff2b56" stop-opacity="1"></stop></linearGradient></defs><defs><linearGradient id="grad1_5" x1="33.3%" y1="100%" x2="100%" y2="0%"><stop offset="20%" stop-color="#ff7c39" stop-opacity="1"></stop><stop offset="80%" stop-color="#fcaf3c" stop-opacity="1"></stop></linearGradient></defs><defs><linearGradient id="grad2_0" x1="0%" y1="100%" x2="66.7%" y2="0%"><stop offset="20%" stop-color="#6600ff" stop-opacity="1"></stop><stop offset="80%" stop-color="#6600ff" stop-opacity="1"></stop></linearGradient></defs><defs><linearGradient id="grad2_1" x1="0%" y1="100%" x2="66.7%" y2="0%"><stop offset="20%" stop-color="#e300c2" stop-opacity="1"></stop><stop offset="80%" stop-color="#6600ff" stop-opacity="1"></stop></linearGradient></defs><defs><linearGradient id="grad2_2" x1="0%" y1="100%" x2="66.7%" y2="0%"><stop offset="20%" stop-color="#e300c2" stop-opacity="1"></stop><stop offset="80%" stop-color="#ff0086" stop-opacity="1"></stop></linearGradient></defs><defs><linearGradient id="grad2_3" x1="0%" y1="100%" x2="66.7%" y2="0%"><stop offset="20%" stop-color="#ff2b56" stop-opacity="1"></stop><stop offset="80%" stop-color="#ff0086" stop-opacity="1"></stop></linearGradient></defs><defs><linearGradient id="grad2_4" x1="0%" y1="100%" x2="66.7%" y2="0%"><stop offset="20%" stop-color="#ff2b56" stop-opacity="1"></stop><stop offset="80%" stop-color="#ff7c39" stop-opacity="1"></stop></linearGradient></defs><defs><linearGradient id="grad2_5" x1="0%" y1="100%" x2="66.7%" y2="0%"><stop offset="20%" stop-color="#fcaf3c" stop-opacity="1"></stop><stop offset="80%" stop-color="#ff7c39" stop-opacity="1"></stop></linearGradient></defs><g transform="translate(900, 600)"><path d="M-486.7 0C-432.9 -43.2 -379 -86.3 -364 -150.8C-349 -215.2 -373 -301 -344.2 -344.2C-315.4 -387.4 -233.8 -388 -167.6 -404.7C-101.5 -421.3 -50.7 -454 0 -486.7L0 0Z" fill="#ff9735"></path><path d="M-405.6 0C-360.7 -36 -315.8 -71.9 -303.3 -125.6C-290.9 -179.4 -310.8 -250.8 -286.8 -286.8C-262.8 -322.8 -194.8 -323.3 -139.7 -337.2C-84.5 -351.1 -42.3 -378.4 0 -405.6L0 0Z" fill="#ff5b45"></path><path d="M-324.5 0C-288.6 -28.8 -252.6 -57.5 -242.7 -100.5C-232.7 -143.5 -248.7 -200.7 -229.5 -229.5C-210.2 -258.2 -155.9 -258.7 -111.7 -269.8C-67.6 -280.9 -33.8 -302.7 0 -324.5L0 0Z" fill="#ff006c"></path><path d="M-243.4 0C-216.4 -21.6 -189.5 -43.2 -182 -75.4C-174.5 -107.6 -186.5 -150.5 -172.1 -172.1C-157.7 -193.7 -116.9 -194 -83.8 -202.3C-50.7 -210.7 -25.4 -227 0 -243.4L0 0Z" fill="#ff00a3"></path><path d="M-162.2 0C-144.3 -14.4 -126.3 -28.8 -121.3 -50.3C-116.3 -71.7 -124.3 -100.3 -114.7 -114.7C-105.1 -129.1 -77.9 -129.3 -55.9 -134.9C-33.8 -140.4 -16.9 -151.3 0 -162.2L0 0Z" fill="#b500e2"></path><path d="M-81.1 0C-72.1 -7.2 -63.2 -14.4 -60.7 -25.1C-58.2 -35.9 -62.2 -50.2 -57.4 -57.4C-52.6 -64.6 -39 -64.7 -27.9 -67.4C-16.9 -70.2 -8.5 -75.7 0 -81.1L0 0Z" fill="#6600ff"></path></g><g transform="translate(0, 0)"><path d="M486.7 0C479.9 63.6 473.1 127.2 449.7 186.3C426.3 245.4 386.3 300 337.3 337.3C288.3 374.6 230.3 394.6 172.6 416.7C114.9 438.7 57.4 462.7 0 486.7L0 0Z" fill="#ff9735"></path><path d="M405.6 0C399.9 53 394.3 106 374.7 155.2C355.2 204.5 321.9 250 281.1 281.1C240.2 312.2 191.9 328.9 143.8 347.2C95.7 365.6 47.9 385.6 0 405.6L0 0Z" fill="#ff5b45"></path><path d="M324.5 0C320 42.4 315.4 84.8 299.8 124.2C284.2 163.6 257.5 200 224.9 224.9C192.2 249.7 153.5 263.1 115.1 277.8C76.6 292.5 38.3 308.5 0 324.5L0 0Z" fill="#ff006c"></path><path d="M243.4 0C240 31.8 236.6 63.6 224.8 93.1C213.1 122.7 193.1 150 168.6 168.6C144.1 187.3 115.2 197.3 86.3 208.3C57.4 219.3 28.7 231.4 0 243.4L0 0Z" fill="#ff00a3"></path><path d="M162.2 0C160 21.2 157.7 42.4 149.9 62.1C142.1 81.8 128.8 100 112.4 112.4C96.1 124.9 76.8 131.5 57.5 138.9C38.3 146.2 19.1 154.2 0 162.2L0 0Z" fill="#b500e2"></path><path d="M81.1 0C80 10.6 78.9 21.2 74.9 31C71 40.9 64.4 50 56.2 56.2C48 62.4 38.4 65.8 28.8 69.4C19.1 73.1 9.6 77.1 0 81.1L0 0Z" fill="#6600ff"></path></g></svg>